<svg width="20" height="18" viewBox="0 0 20 18" fill="none" xmlns="http://www.w3.org/2000/svg">
<path d="M0.5 5.40093V5.40084C0.499775 4.08541 1.02846 2.82512 1.96711 1.90354C2.90576 0.981956 4.17553 0.476482 5.49074 0.500841V0.500983L5.50266 0.50092C7.07665 0.492561 8.57856 1.16007 9.62709 2.334L10 2.75151L10.3729 2.334C11.4214 1.16007 12.9233 0.492561 14.4973 0.50092V0.501062L14.5093 0.500841C15.8245 0.476482 17.0942 0.981956 18.0329 1.90354C18.9715 2.82512 19.5002 4.08541 19.5 5.40084V5.40093C19.5 7.87566 18.0242 10.1033 16.0015 12.1587C14.9966 13.1799 13.876 14.1395 12.7721 15.0496C12.456 15.3101 12.1401 15.5676 11.8286 15.8215C11.1885 16.3431 10.5671 16.8495 10.0016 17.3362C9.41095 16.8232 8.7593 16.2903 8.08854 15.7419C7.80525 15.5103 7.51854 15.2759 7.23158 15.039C6.12755 14.1275 5.00664 13.1691 4.00109 12.1497C1.9772 10.0979 0.5 7.87716 0.5 5.40093Z" stroke="white" stroke-width="1.5"/>
<path d="M10 16.5V2.99997C8.50458 1.00377 7.51524 0.22154 5 0.499971C0.977789 1.2735 0.344441 3.32487 0.499999 5.99997C0.655558 8.67507 6.28828 15.8853 10 16.5Z" fill="white" stroke="white" stroke-width="0.2"/>
</svg>
